<svg xmlns="http://www.w3.org/2000/svg" version="1.1" viewBox="0 0 600 800" width="5.607in" height="7.476in" role="img" aria-label="The Woody Station Wagon, a picture to color"><title>The Woody Station Wagon</title><rect width="600" height="800" fill="#fff"/><g transform="translate(0 0) scale(1)" fill="#fff" data-bw="white" stroke="#000" stroke-width="6.688" stroke-linecap="round" stroke-linejoin="round"><path d="M24 776 L24 250 C24 99.3 116 24 300 24 C484 24 576 99.3 576 250 L576 776 Z"/><path d="M498 150 C498 178.7 474.7 202 446 202 C417.3 202 394 178.7 394 150 C394 121.3 417.3 98 446 98 C474.7 98 498 121.3 498 150 Z"/><path d="M24 470 C180 448 420 488 576 462 L576 776 L24 776 Z"/><path d="M24 610 L576 600 L576 700 L24 710 Z"/><path d="M41.4 644.4 L41.4 522.7 C41.4 508.7 49 501.8 64.2 501.8 L393.2 501.8 C405.8 501.8 416 506.8 423.6 517 L452.1 568.3 C501.5 572.1 534.5 579.1 551 589.2 C557.4 603.2 559.3 621.5 556.7 644.4 L507.3 644.4 C505.4 585.4 402.7 585.4 400.8 644.4 L193.5 644.4 C191.6 585.4 88.9 585.4 87 644.4 Z"/><path d="M66.1 517 L146 517 C149.1 517 151.7 519.5 151.7 522.7 L151.7 556.9 C151.7 560 149.1 562.6 146 562.6 L66.1 562.6 C63 562.6 60.4 560 60.4 556.9 L60.4 522.7 C60.4 519.5 63 517 66.1 517 Z"/><path d="M170.7 517 L250.6 517 C253.7 517 256.3 519.5 256.3 522.7 L256.3 556.9 C256.3 560 253.7 562.6 250.6 562.6 L170.7 562.6 C167.6 562.6 165 560 165 556.9 L165 522.7 C165 519.5 167.6 517 170.7 517 Z"/><path d="M275.3 517 L355.1 517 C358.3 517 360.8 519.5 360.8 522.7 L360.8 556.9 C360.8 560 358.3 562.6 355.1 562.6 L275.3 562.6 C272.1 562.6 269.6 560 269.6 556.9 L269.6 522.7 C269.6 519.5 272.1 517 275.3 517 Z"/><path d="M374.2 562.6 L374.2 517 L397 517 C404.6 517 410.9 521.4 416 530.3 L435 562.6 Z"/><path d="M184 646.3 C184 670.4 164.4 690 140.3 690 C116.1 690 96.5 670.4 96.5 646.3 C96.5 622.1 116.1 602.5 140.3 602.5 C164.4 602.5 184 622.1 184 646.3 Z"/><path d="M165.7 646.3 C165.7 660.2 154.3 671.7 140.3 671.7 C126.3 671.7 114.9 660.2 114.9 646.3 C114.9 632.3 126.3 620.9 140.3 620.9 C154.3 620.9 165.7 632.3 165.7 646.3 Z"/><path d="M497.7 646.3 C497.7 670.4 478.2 690 454 690 C429.9 690 410.3 670.4 410.3 646.3 C410.3 622.1 429.9 602.5 454 602.5 C478.2 602.5 497.7 622.1 497.7 646.3 Z"/><path d="M479.4 646.3 C479.4 660.2 468 671.7 454 671.7 C440 671.7 428.6 660.2 428.6 646.3 C428.6 632.3 440 620.9 454 620.9 C468 620.9 479.4 632.3 479.4 646.3 Z"/></g></svg>
